HIERARCHY
ROOT joint_0
{
	OFFSET 0.000000 0.000000 0.000000
	CHANNELS 6 Xposition Yposition Zposition Zrotation Yrotation Xrotation 
	JOINT joint_1
	{
		OFFSET 0.511002 1.944000 108.288940
		CHANNELS 3 Zrotation Yrotation Xrotation
		JOINT joint_2
		{
			OFFSET -9.074005 1.512993 98.440063
			CHANNELS 3 Zrotation Yrotation Xrotation
			JOINT joint_3
			{
				OFFSET -8.590996 1.815002 98.366943
				CHANNELS 3 Zrotation Yrotation Xrotation
				JOINT joint_4
				{
					OFFSET 2.489998 3.531998 136.462036
					CHANNELS 3 Zrotation Yrotation Xrotation
					JOINT joint_5
					{
						OFFSET 22.708000 2.955002 80.357056
						CHANNELS 3 Zrotation Yrotation Xrotation
						End Site
						{
							OFFSET 0.000000 0.000000 0.000000
						}
					}
				}
				JOINT joint_6
				{
					OFFSET 2.860001 -27.684998 77.234009
					CHANNELS 3 Zrotation Yrotation Xrotation
					JOINT joint_7
					{
						OFFSET 5.449997 -131.244003 -18.851929
						CHANNELS 3 Zrotation Yrotation Xrotation
						JOINT joint_8
						{
							OFFSET 35.757000 -24.661995 -264.074097
							CHANNELS 3 Zrotation Yrotation Xrotation
							JOINT joint_9
							{
								OFFSET 49.392001 -1.747002 -239.960938
								CHANNELS 3 Zrotation Yrotation Xrotation
								End Site
								{
									OFFSET 0.000000 0.000000 0.000000
								}
							}
						}
					}
				}
				JOINT joint_10
				{
					OFFSET -0.127998 31.625000 75.753052
					CHANNELS 3 Zrotation Yrotation Xrotation
					JOINT joint_11
					{
						OFFSET -5.618004 131.132996 -19.557007
						CHANNELS 3 Zrotation Yrotation Xrotation
						JOINT joint_12
						{
							OFFSET 46.488998 30.127991 -261.826050
							CHANNELS 3 Zrotation Yrotation Xrotation
							JOINT joint_13
							{
								OFFSET 66.021003 0.474030 -235.934937
								CHANNELS 3 Zrotation Yrotation Xrotation
								End Site
								{
									OFFSET 0.000000 0.000000 0.000000
								}
							}
						}
					}
				}
			}
		}
	}
	JOINT joint_14
	{
		OFFSET 15.887001 -78.871004 -94.561035
		CHANNELS 3 Zrotation Yrotation Xrotation
		JOINT joint_15
		{
			OFFSET -4.133003 6.714001 -473.615967
			CHANNELS 3 Zrotation Yrotation Xrotation
			JOINT joint_16
			{
				OFFSET -19.541000 5.340000 -399.613007
				CHANNELS 3 Zrotation Yrotation Xrotation
				JOINT joint_17
				{
					OFFSET 164.317001 41.657999 -73.195000
					CHANNELS 3 Zrotation Yrotation Xrotation
					End Site
					{
						OFFSET 0.000000 0.000000 0.000000
					}
				}
			}
		}
	}
	JOINT joint_18
	{
		OFFSET 6.513000 77.960991 -96.406982
		CHANNELS 3 Zrotation Yrotation Xrotation
		JOINT joint_19
		{
			OFFSET -10.660004 -8.518997 -473.485016
			CHANNELS 3 Zrotation Yrotation Xrotation
			JOINT joint_20
			{
				OFFSET -36.967995 -11.098999 -398.260010
				CHANNELS 3 Zrotation Yrotation Xrotation
				JOINT joint_21
				{
					OFFSET 166.067997 30.363998 -74.785000
					CHANNELS 3 Zrotation Yrotation Xrotation
					End Site
					{
						OFFSET 0.000000 0.000000 0.000000
					}
				}
			}
		}
	}
}
MOTION
Frames: 13
Frame Time: 0.016667
-2194.409668 869.142273 1044.298950 5.898925 -1.559848 -0.734627 -3.911903 10.823514 0.885449 -1.174085 -1.543789 -0.098602 -0.659741 2.114436 0.194424 -0.693313 -3.085946 2.738945 0.000000 0.000000 0.000000 -0.269274 -29.211996 2.429285 -65.669286 -9.946444 -4.393325 -22.544318 -82.591034 137.075871 0.000000 0.000000 0.000000 -4.826985 13.102135 0.278495 20.856259 -1.668289 7.628717 -177.048416 -58.935409 173.898827 0.000000 0.000000 0.000000 -4.842474 -16.670121 -4.362974 -5.882199 25.678952 -2.380709 -7.734303 -1.217720 -2.819665 0.000000 0.000000 0.000000 -4.364049 -13.654587 16.516414 -4.284907 44.900413 -11.383428 -2.994113 -2.236293 -0.858178 0.000000 0.000000 0.000000 
-2191.036865 871.812012 1047.807983 5.816142 -1.269816 -0.650454 -3.581002 10.936660 0.753660 -1.344720 -1.603685 -0.040935 -0.957448 2.167532 0.171376 -0.767144 -3.058816 2.969855 0.000000 0.000000 0.000000 -0.487138 -30.146253 2.569278 -71.225581 -10.625660 -4.231099 -22.345135 -83.268021 141.980948 0.000000 0.000000 0.000000 -4.350698 13.128740 0.649137 20.887804 -1.335339 7.598773 -177.272094 -58.594414 173.166750 0.000000 0.000000 0.000000 -5.019765 -16.307062 -4.434869 -5.770238 24.524026 -2.519569 -7.418989 -0.419370 -2.915372 0.000000 0.000000 0.000000 -3.257229 -13.556341 16.072797 -2.994356 40.294237 -9.565967 -0.950394 -2.052117 -0.090733 0.000000 0.000000 0.000000 
-2188.071533 875.229614 1051.011963 5.634699 -0.989233 -0.587136 -3.251765 10.947011 0.700898 -1.491210 -1.631912 -0.005038 -1.217534 2.180751 0.157714 -0.826869 -3.026442 3.157560 0.000000 0.000000 0.000000 -0.730460 -31.244185 2.729179 -77.248269 -11.578787 -4.065061 -21.294608 -83.792416 146.476894 0.000000 0.000000 0.000000 -3.992647 13.169644 0.947036 20.990930 -0.994231 7.670722 -177.426556 -58.373936 172.334154 0.000000 0.000000 0.000000 -5.110684 -15.981770 -4.581853 -5.606958 23.397455 -2.553958 -7.060565 0.411221 -2.996660 0.000000 0.000000 0.000000 -2.122037 -13.384039 15.589105 -1.681903 35.499937 -7.842517 0.649783 -1.290374 0.417220 0.000000 0.000000 0.000000 
-2185.388184 879.486267 1053.733032 5.333147 -0.707255 -0.520304 -2.929104 10.734820 0.694598 -1.601366 -1.587815 0.032467 -1.427388 2.140170 0.162868 -0.867811 -3.005628 3.294986 0.000000 0.000000 0.000000 -0.959813 -32.270699 2.877720 -82.756563 -12.765959 -3.926067 -19.059772 -84.101193 149.327492 0.000000 0.000000 0.000000 -3.850889 13.322952 1.077819 21.174623 -0.628327 7.885867 -177.483771 -58.285304 171.437916 0.000000 0.000000 0.000000 -5.061302 -15.776163 -4.905129 -5.361314 22.456959 -2.382139 -6.632468 1.233496 -3.041078 0.000000 0.000000 0.000000 -1.007489 -13.250499 15.068245 -0.388432 30.660041 -6.296811 1.851694 0.011550 0.682438 0.000000 0.000000 0.000000 
-2183.113281 884.490723 1056.149048 4.924513 -0.439741 -0.482461 -2.621336 10.431795 0.775063 -1.678622 -1.522817 0.043667 -1.583102 2.065627 0.175087 -0.895276 -2.980526 3.393909 0.000000 0.000000 0.000000 -1.105603 -32.990812 2.960454 -87.548764 -14.064139 -3.653881 -14.698235 -84.161859 149.282610 0.000000 0.000000 0.000000 -3.832653 13.486933 1.143572 21.432031 -0.254090 8.193762 -177.470426 -58.313392 170.435574 0.000000 0.000000 0.000000 -4.928796 -15.605287 -5.293624 -5.063751 21.542786 -2.112091 -6.160409 2.088755 -3.070922 0.000000 0.000000 0.000000 0.124942 -13.007623 14.514165 0.897172 25.560920 -4.900940 2.775781 1.954691 0.727214 0.000000 0.000000 0.000000 
-2181.130859 890.019043 1057.756958 4.411419 -0.301824 -0.511874 -2.364582 10.247063 1.010759 -1.704773 -1.491432 -0.025124 -1.645831 1.999983 0.199275 -0.914815 -2.931959 3.468535 0.000000 0.000000 0.000000 -1.046159 -33.168029 2.881477 -90.787570 -15.176319 -3.275594 -7.308861 -83.744344 144.606717 0.000000 0.000000 0.000000 -3.862111 13.576900 1.197127 21.726505 0.080290 8.470122 -177.425864 -58.377111 169.404779 0.000000 0.000000 0.000000 -4.754486 -15.384147 -5.618856 -4.773767 20.783337 -1.885156 -5.746892 2.766572 -3.074451 0.000000 0.000000 0.000000 1.201247 -12.608460 14.027331 2.063596 21.311129 -3.844170 3.564256 3.755036 0.741713 0.000000 0.000000 0.000000 
-2179.422852 896.077576 1058.385986 3.818843 -0.332587 -0.558503 -2.170673 10.209901 1.310199 -1.696296 -1.473919 -0.132452 -1.642680 1.964873 0.253729 -0.931434 -2.866793 3.538031 0.000000 0.000000 0.000000 -0.792064 -33.124564 2.665679 -91.485670 -15.908476 -3.528104 4.998233 -82.130781 132.821543 0.000000 0.000000 0.000000 -3.944618 13.593807 1.245014 22.059467 0.386782 8.666070 -177.348807 -58.436200 168.378234 0.000000 0.000000 0.000000 -4.560758 -15.102133 -5.915253 -4.527053 20.246897 -1.740627 -5.437022 3.186858 -3.052078 0.000000 0.000000 0.000000 2.165265 -12.187508 13.601273 3.069033 18.733091 -3.142367 4.361657 4.548601 0.939084 0.000000 0.000000 0.000000 
-2178.007324 902.659912 1058.206055 3.190498 -0.450862 -0.568620 -2.004207 10.200864 1.571383 -1.675329 -1.441391 -0.217502 -1.622205 1.940877 0.327866 -0.941407 -2.778914 3.586142 0.000000 0.000000 0.000000 -1.198984 -36.274478 2.928415 -93.418754 -17.396980 -5.906035 29.014305 -75.062295 113.188697 0.000000 0.000000 0.000000 -4.073058 13.526736 1.278933 22.443131 0.656184 8.838717 -177.237008 -58.528003 167.309833 0.000000 0.000000 0.000000 -4.350855 -14.832372 -6.277325 -4.298861 19.901842 -1.618537 -5.179937 3.366374 -2.988993 0.000000 0.000000 0.000000 3.016390 -11.782144 13.139891 3.939685 17.300368 -2.633825 5.147019 4.471061 1.289059 0.000000 0.000000 0.000000 
-2176.822998 909.521179 1057.222046 2.592924 -0.570424 -0.555825 -1.817428 10.160166 1.807103 -1.645995 -1.416524 -0.274059 -1.604583 1.918987 0.384986 -0.937790 -2.635959 3.569134 0.000000 0.000000 0.000000 -0.219272 -33.228178 2.054113 -86.112996 -16.149978 -6.768384 -143.797945 -31.441478 -103.170189 0.000000 0.000000 0.000000 -4.173360 13.281829 1.321368 22.869735 0.797480 9.027478 -177.121887 -58.683200 166.158106 0.000000 0.000000 0.000000 -4.146184 -14.638492 -6.694849 -4.067430 19.739246 -1.503900 -4.938720 3.217998 -2.848495 0.000000 0.000000 0.000000 3.719199 -11.303811 12.600217 4.642968 16.290539 -2.208303 5.795452 3.966515 1.662176 0.000000 0.000000 0.000000 
-2175.768066 916.916260 1055.082031 2.035037 -0.650632 -0.552288 -1.579659 10.022079 2.094008 -1.610645 -1.401263 -0.304593 -1.600608 1.886507 0.412327 -0.905863 -2.387639 3.427289 0.000000 0.000000 0.000000 -0.129082 -33.948685 1.661870 -93.215310 -18.076507 -4.765974 -147.949310 2.779805 -108.227654 0.000000 0.000000 0.000000 -4.228803 12.814393 1.380707 23.378471 0.781279 9.236095 -176.999993 -58.902186 164.838772 0.000000 0.000000 0.000000 -3.941980 -14.556504 -7.183865 -3.803097 19.802014 -1.349293 -4.679825 2.568768 -2.573352 0.000000 0.000000 0.000000 4.232366 -10.630690 11.938091 5.137250 15.498648 -1.810422 6.245482 3.014214 2.038753 0.000000 0.000000 0.000000 
-2174.943115 924.591248 1052.136963 1.508656 -0.731002 -0.526738 -1.327067 9.848203 2.357344 -1.565099 -1.388793 -0.309346 -1.597122 1.851006 0.424205 -0.856996 -2.084717 3.222100 0.000000 0.000000 0.000000 -0.157274 -35.086785 1.262783 -94.930165 -19.067416 -5.248496 -152.649727 17.238604 -112.731576 0.000000 0.000000 0.000000 -4.256865 12.152185 1.432632 23.961697 0.635214 9.475645 -176.858510 -59.178132 163.396421 0.000000 0.000000 0.000000 -3.745215 -14.550779 -7.724409 -3.537682 20.039874 -1.209007 -4.440793 1.604142 -2.226620 0.000000 0.000000 0.000000 4.594902 -9.898635 11.189416 5.461180 15.151099 -1.457325 6.578053 1.644620 2.442612 0.000000 0.000000 0.000000 
-2174.585205 931.539734 1049.448975 1.051957 -0.838816 -0.415291 -1.110392 9.754103 2.421125 -1.504569 -1.386228 -0.301693 -1.573722 1.838331 0.418474 -0.831092 -1.843529 3.100012 0.000000 0.000000 0.000000 -0.081206 -34.400186 0.857603 -89.289948 -18.256670 -7.347298 -159.222327 16.905688 -113.037735 0.000000 0.000000 0.000000 -4.229519 11.326501 1.454343 24.523459 0.345992 9.787581 -176.721539 -59.537322 161.996646 0.000000 0.000000 0.000000 -3.589843 -14.579507 -8.232319 -3.339356 20.308994 -1.222917 -4.291601 0.766362 -1.949028 0.000000 0.000000 0.000000 4.883646 -9.404970 10.458691 5.699152 15.175218 -1.193578 6.865823 0.439356 2.792956 0.000000 0.000000 0.000000 
-2174.998291 937.301270 1047.312988 0.659381 -0.982088 -0.132834 -0.932931 9.807303 2.105802 -1.411809 -1.403362 -0.272001 -1.511600 1.873999 0.389625 -0.856787 -1.724115 3.155475 0.000000 0.000000 0.000000 -0.112762 -31.735396 0.681659 -78.844107 -16.092619 -9.403574 -167.610807 7.941765 -110.884240 0.000000 0.000000 0.000000 -4.130281 10.268515 1.422475 25.054374 -0.181096 10.268471 -176.586760 -60.040851 160.664187 0.000000 0.000000 0.000000 -3.497468 -14.664461 -8.690573 -3.251105 20.591340 -1.510512 -4.294159 0.166408 -1.793383 0.000000 0.000000 0.000000 5.120481 -9.347182 9.736249 5.872280 15.728222 -1.044217 7.149905 -0.433608 3.074001 0.000000 0.000000 0.000000 
